<svg width="483" height="494" viewBox="0 0 483 494" fill="none" xmlns="http://www.w3.org/2000/svg">
<rect width="483" height="494" rx="100" fill="white"/>
<path d="M237.056 92.9834C220.518 97.5365 190.315 102.153 174.2 104.446C168.846 105.208 165.722 110.928 168.003 115.832L181.554 144.972C183.09 148.273 186.644 150.122 190.221 149.444C200.594 147.476 222.082 143.265 237.056 139.415C252.667 135.401 288.958 122.892 305.144 117.238C309.513 115.712 311.633 110.811 309.8 106.562L298.038 79.287C296.298 75.253 291.634 73.3674 287.561 75.0146C276.147 79.6307 253.716 88.3964 237.056 92.9834Z" fill="black" stroke="url(#paint0_linear_399_135)"/>
<path d="M185.558 166.592L159.538 190.57C156.1 193.739 156.1 199.168 159.538 202.336L236.48 273.24C241.838 278.177 238.345 287.123 231.059 287.123H224.877C221.997 287.123 219.339 288.672 217.918 291.177L176.991 363.363C175.57 365.869 172.912 367.418 170.032 367.418H75C70.5817 367.418 67 370.999 67 375.418V409.038C67 413.456 70.5817 417.038 75 417.038H173.2C174.186 417.038 175.164 416.856 176.084 416.5L217.162 400.626C219.12 399.869 220.702 398.374 221.567 396.462L256.128 320.103C258.419 315.04 265.049 313.799 269.017 317.69L370.222 416.931C373.157 419.808 377.795 419.994 380.95 417.36L410.217 392.928C413.849 389.896 414.071 384.391 410.694 381.077L264.582 237.684C258.772 231.982 264.198 222.257 272.102 224.207L360.474 246.009C364.688 247.049 368.962 244.539 370.107 240.352L381.014 200.461C382.386 195.444 378.681 190.464 373.483 190.305C350.731 189.609 295.958 187.559 270.636 183.372C244.003 178.967 205.941 168.399 193.217 164.771C190.515 164.001 187.624 164.688 185.558 166.592Z" fill="url(#paint1_linear_399_135)" stroke="url(#paint2_linear_399_135)"/>
<defs>
<linearGradient id="paint0_linear_399_135" x1="238.292" y1="72" x2="238.292" y2="150.576" gradientUnits="userSpaceOnUse">
<stop stop-color="#727272"/>
<stop offset="1" stop-color="#343434"/>
</linearGradient>
<linearGradient id="paint1_linear_399_135" x1="251.333" y1="233" x2="207.52" y2="409.377" gradientUnits="userSpaceOnUse">
<stop/>
<stop offset="0.38351" stop-color="#111111" stop-opacity="0.787981"/>
<stop offset="1" stop-color="#6E6E6E"/>
</linearGradient>
<linearGradient id="paint2_linear_399_135" x1="242" y1="163.523" x2="242" y2="422" gradientUnits="userSpaceOnUse">
<stop stop-color="#727272"/>
<stop offset="1" stop-color="#343434"/>
</linearGradient>
</defs>
</svg>
